<svg width="131" height="31" viewBox="0 0 131 31" fill="none" xmlns="http://www.w3.org/2000/svg">
<path d="M11.3409 0.727272H16.2045V16.9545C16.2045 18.4545 15.8674 19.7576 15.1932 20.8636C14.5265 21.9697 13.5985 22.822 12.4091 23.4205C11.2197 24.0189 9.83712 24.3182 8.26136 24.3182C6.85985 24.3182 5.58712 24.072 4.44318 23.5795C3.30682 23.0795 2.4053 22.322 1.73864 21.3068C1.07197 20.2841 0.742424 19 0.75 17.4545H5.64773C5.66288 18.0682 5.78788 18.5947 6.02273 19.0341C6.26515 19.4659 6.5947 19.7992 7.01136 20.0341C7.43561 20.2614 7.93561 20.375 8.51136 20.375C9.11742 20.375 9.62879 20.2462 10.0455 19.9886C10.4697 19.7235 10.7917 19.3371 11.0114 18.8295C11.2311 18.322 11.3409 17.697 11.3409 16.9545V0.727272ZM28.0682 24.3409C26.303 24.3409 24.7765 23.9659 23.4886 23.2159C22.2083 22.4583 21.2197 21.4053 20.5227 20.0568C19.8258 18.7008 19.4773 17.1288 19.4773 15.3409C19.4773 13.5379 19.8258 11.9621 20.5227 10.6136C21.2197 9.25758 22.2083 8.20454 23.4886 7.45454C24.7765 6.69697 26.303 6.31818 28.0682 6.31818C29.8333 6.31818 31.3561 6.69697 32.6364 7.45454C33.9242 8.20454 34.9167 9.25758 35.6136 10.6136C36.3106 11.9621 36.6591 13.5379 36.6591 15.3409C36.6591 17.1288 36.3106 18.7008 35.6136 20.0568C34.9167 21.4053 33.9242 22.4583 32.6364 23.2159C31.3561 23.9659 29.8333 24.3409 28.0682 24.3409ZM28.0909 20.5909C28.8939 20.5909 29.5644 20.3636 30.1023 19.9091C30.6402 19.447 31.0455 18.8182 31.3182 18.0227C31.5985 17.2273 31.7386 16.322 31.7386 15.3068C31.7386 14.2917 31.5985 13.3864 31.3182 12.5909C31.0455 11.7955 30.6402 11.1667 30.1023 10.7045C29.5644 10.2424 28.8939 10.0114 28.0909 10.0114C27.2803 10.0114 26.5985 10.2424 26.0455 10.7045C25.5 11.1667 25.0871 11.7955 24.8068 12.5909C24.5341 13.3864 24.3977 14.2917 24.3977 15.3068C24.3977 16.322 24.5341 17.2273 24.8068 18.0227C25.0871 18.8182 25.5 19.447 26.0455 19.9091C26.5985 20.3636 27.2803 20.5909 28.0909 20.5909ZM39.8977 24V0.727272H44.7386V9.47727H44.8864C45.0985 9.00758 45.4053 8.5303 45.8068 8.04545C46.2159 7.55303 46.7462 7.14394 47.3977 6.81818C48.0568 6.48485 48.875 6.31818 49.8523 6.31818C51.125 6.31818 52.2992 6.65152 53.375 7.31818C54.4508 7.97727 55.3106 8.97348 55.9545 10.3068C56.5985 11.6326 56.9205 13.2955 56.9205 15.2955C56.9205 17.2424 56.6061 18.8864 55.9773 20.2273C55.3561 21.5606 54.5076 22.572 53.4318 23.2614C52.3636 23.9432 51.1667 24.2841 49.8409 24.2841C48.9015 24.2841 48.1023 24.1288 47.4432 23.8182C46.7917 23.5076 46.2576 23.1174 45.8409 22.6477C45.4242 22.1705 45.1061 21.6894 44.8864 21.2045H44.6705V24H39.8977ZM44.6364 15.2727C44.6364 16.3106 44.7803 17.2159 45.0682 17.9886C45.3561 18.7614 45.7727 19.3636 46.3182 19.7955C46.8636 20.2197 47.5265 20.4318 48.3068 20.4318C49.0947 20.4318 49.7614 20.2159 50.3068 19.7841C50.8523 19.3447 51.2652 18.7386 51.5455 17.9659C51.8333 17.1856 51.9773 16.2879 51.9773 15.2727C51.9773 14.2652 51.8371 13.3788 51.5568 12.6136C51.2765 11.8485 50.8636 11.25 50.3182 10.8182C49.7727 10.3864 49.1023 10.1705 48.3068 10.1705C47.5189 10.1705 46.8523 10.3788 46.3068 10.7955C45.7689 11.2121 45.3561 11.803 45.0682 12.5682C44.7803 13.3333 44.6364 14.2348 44.6364 15.2727ZM72.8665 7.42045C72.7756 6.50379 72.3854 5.79167 71.696 5.28409C71.0066 4.77651 70.071 4.52273 68.8892 4.52273C68.0862 4.52273 67.4081 4.63636 66.8551 4.86364C66.3021 5.08333 65.8778 5.39015 65.5824 5.78409C65.2945 6.17803 65.1506 6.625 65.1506 7.125C65.1354 7.54167 65.2225 7.9053 65.4119 8.21591C65.6089 8.52652 65.8778 8.79545 66.2188 9.02273C66.5597 9.24242 66.9536 9.43561 67.4006 9.60227C67.8475 9.76136 68.3248 9.89773 68.8324 10.0114L70.9233 10.5114C71.9384 10.7386 72.8703 11.0417 73.7188 11.4205C74.5672 11.7992 75.3021 12.2652 75.9233 12.8182C76.5445 13.3712 77.0256 14.0227 77.3665 14.7727C77.715 15.5227 77.893 16.3826 77.9006 17.3523C77.893 18.7765 77.5294 20.0114 76.8097 21.0568C76.0975 22.0947 75.0672 22.9015 73.7188 23.4773C72.3778 24.0455 70.7604 24.3295 68.8665 24.3295C66.9877 24.3295 65.3513 24.0417 63.9574 23.4659C62.571 22.8902 61.4877 22.0379 60.7074 20.9091C59.9347 19.7727 59.5294 18.3674 59.4915 16.6932H64.2528C64.3059 17.4735 64.5294 18.125 64.9233 18.6477C65.3248 19.1629 65.8589 19.553 66.5256 19.8182C67.1998 20.0758 67.9612 20.2045 68.8097 20.2045C69.643 20.2045 70.3665 20.0833 70.9801 19.8409C71.6013 19.5985 72.0824 19.2614 72.4233 18.8295C72.7642 18.3977 72.9347 17.9015 72.9347 17.3409C72.9347 16.8182 72.7794 16.3788 72.4688 16.0227C72.1657 15.6667 71.7188 15.3636 71.1278 15.1136C70.5445 14.8636 69.8286 14.6364 68.9801 14.4318L66.446 13.7955C64.4839 13.3182 62.9347 12.572 61.7983 11.5568C60.6619 10.5417 60.0975 9.17424 60.1051 7.45454C60.0975 6.04545 60.4725 4.81439 61.2301 3.76136C61.9953 2.70833 63.0445 1.88636 64.3778 1.29545C65.7112 0.704545 67.2263 0.40909 68.9233 0.40909C70.6506 0.40909 72.1581 0.704545 73.446 1.29545C74.7415 1.88636 75.7491 2.70833 76.4688 3.76136C77.1884 4.81439 77.5597 6.03409 77.5824 7.42045H72.8665ZM81.1193 30.5455V6.54545H85.892V9.47727H86.108C86.3201 9.00758 86.6269 8.5303 87.0284 8.04545C87.4375 7.55303 87.9678 7.14394 88.6193 6.81818C89.2784 6.48485 90.0966 6.31818 91.0739 6.31818C92.3466 6.31818 93.5208 6.65152 94.5966 7.31818C95.6723 7.97727 96.5322 8.97348 97.1761 10.3068C97.8201 11.6326 98.142 13.2955 98.142 15.2955C98.142 17.2424 97.8277 18.8864 97.1989 20.2273C96.5777 21.5606 95.7292 22.572 94.6534 23.2614C93.5852 23.9432 92.3883 24.2841 91.0625 24.2841C90.1231 24.2841 89.3239 24.1288 88.6648 23.8182C88.0133 23.5076 87.4792 23.1174 87.0625 22.6477C86.6458 22.1705 86.3277 21.6894 86.108 21.2045H85.9602V30.5455H81.1193ZM85.858 15.2727C85.858 16.3106 86.0019 17.2159 86.2898 17.9886C86.5777 18.7614 86.9943 19.3636 87.5398 19.7955C88.0852 20.2197 88.7481 20.4318 89.5284 20.4318C90.3163 20.4318 90.983 20.2159 91.5284 19.7841C92.0739 19.3447 92.4867 18.7386 92.767 17.9659C93.0549 17.1856 93.1989 16.2879 93.1989 15.2727C93.1989 14.2652 93.0587 13.3788 92.7784 12.6136C92.4981 11.8485 92.0852 11.25 91.5398 10.8182C90.9943 10.3864 90.3239 10.1705 89.5284 10.1705C88.7405 10.1705 88.0739 10.3788 87.5284 10.7955C86.9905 11.2121 86.5777 11.803 86.2898 12.5682C86.0019 13.3333 85.858 14.2348 85.858 15.2727ZM109.256 24.3409C107.491 24.3409 105.964 23.9659 104.676 23.2159C103.396 22.4583 102.407 21.4053 101.71 20.0568C101.013 18.7008 100.665 17.1288 100.665 15.3409C100.665 13.5379 101.013 11.9621 101.71 10.6136C102.407 9.25758 103.396 8.20454 104.676 7.45454C105.964 6.69697 107.491 6.31818 109.256 6.31818C111.021 6.31818 112.544 6.69697 113.824 7.45454C115.112 8.20454 116.104 9.25758 116.801 10.6136C117.498 11.9621 117.847 13.5379 117.847 15.3409C117.847 17.1288 117.498 18.7008 116.801 20.0568C116.104 21.4053 115.112 22.4583 113.824 23.2159C112.544 23.9659 111.021 24.3409 109.256 24.3409ZM109.278 20.5909C110.081 20.5909 110.752 20.3636 111.29 19.9091C111.828 19.447 112.233 18.8182 112.506 18.0227C112.786 17.2273 112.926 16.322 112.926 15.3068C112.926 14.2917 112.786 13.3864 112.506 12.5909C112.233 11.7955 111.828 11.1667 111.29 10.7045C110.752 10.2424 110.081 10.0114 109.278 10.0114C108.468 10.0114 107.786 10.2424 107.233 10.7045C106.688 11.1667 106.275 11.7955 105.994 12.5909C105.722 13.3864 105.585 14.2917 105.585 15.3068C105.585 16.322 105.722 17.2273 105.994 18.0227C106.275 18.8182 106.688 19.447 107.233 19.9091C107.786 20.3636 108.468 20.5909 109.278 20.5909ZM130.278 6.54545V10.1818H119.767V6.54545H130.278ZM122.153 2.36364H126.994V18.6364C126.994 19.0833 127.063 19.4318 127.199 19.6818C127.335 19.9242 127.525 20.0947 127.767 20.1932C128.017 20.2917 128.305 20.3409 128.631 20.3409C128.858 20.3409 129.085 20.322 129.312 20.2841C129.54 20.2386 129.714 20.2045 129.835 20.1818L130.597 23.7841C130.354 23.8598 130.013 23.947 129.574 24.0455C129.134 24.1515 128.6 24.2159 127.972 24.2386C126.805 24.2841 125.782 24.1288 124.903 23.7727C124.032 23.4167 123.354 22.8636 122.869 22.1136C122.384 21.3636 122.146 20.4167 122.153 19.2727V2.36364Z" fill="url(#paint0_linear_2_3)"/>
<defs>
<linearGradient id="paint0_linear_2_3" x1="7.5" y1="12" x2="132" y2="18" gradientUnits="userSpaceOnUse">
<stop stop-color="#FF8040"/>
<stop offset="1" stop-color="#FF8040" stop-opacity="0.8"/>
</linearGradient>
</defs>
</svg>
