<svg width="139" height="39" viewBox="0 0 139 39" fill="none" xmlns="http://www.w3.org/2000/svg">
<g filter="url(#filter0_d_2_3)">
<path d="M15.3409 0.727272H20.2045V16.9545C20.2045 18.4545 19.8674 19.7576 19.1932 20.8636C18.5265 21.9697 17.5985 22.822 16.4091 23.4205C15.2197 24.0189 13.8371 24.3182 12.2614 24.3182C10.8598 24.3182 9.58712 24.072 8.44318 23.5795C7.30682 23.0795 6.4053 22.322 5.73864 21.3068C5.07197 20.2841 4.74242 19 4.75 17.4545H9.64773C9.66288 18.0682 9.78788 18.5947 10.0227 19.0341C10.2652 19.4659 10.5947 19.7992 11.0114 20.0341C11.4356 20.2614 11.9356 20.375 12.5114 20.375C13.1174 20.375 13.6288 20.2462 14.0455 19.9886C14.4697 19.7235 14.7917 19.3371 15.0114 18.8295C15.2311 18.322 15.3409 17.697 15.3409 16.9545V0.727272ZM32.0682 24.3409C30.303 24.3409 28.7765 23.9659 27.4886 23.2159C26.2083 22.4583 25.2197 21.4053 24.5227 20.0568C23.8258 18.7008 23.4773 17.1288 23.4773 15.3409C23.4773 13.5379 23.8258 11.9621 24.5227 10.6136C25.2197 9.25758 26.2083 8.20454 27.4886 7.45454C28.7765 6.69697 30.303 6.31818 32.0682 6.31818C33.8333 6.31818 35.3561 6.69697 36.6364 7.45454C37.9242 8.20454 38.9167 9.25758 39.6136 10.6136C40.3106 11.9621 40.6591 13.5379 40.6591 15.3409C40.6591 17.1288 40.3106 18.7008 39.6136 20.0568C38.9167 21.4053 37.9242 22.4583 36.6364 23.2159C35.3561 23.9659 33.8333 24.3409 32.0682 24.3409ZM32.0909 20.5909C32.8939 20.5909 33.5644 20.3636 34.1023 19.9091C34.6402 19.447 35.0455 18.8182 35.3182 18.0227C35.5985 17.2273 35.7386 16.322 35.7386 15.3068C35.7386 14.2917 35.5985 13.3864 35.3182 12.5909C35.0455 11.7955 34.6402 11.1667 34.1023 10.7045C33.5644 10.2424 32.8939 10.0114 32.0909 10.0114C31.2803 10.0114 30.5985 10.2424 30.0455 10.7045C29.5 11.1667 29.0871 11.7955 28.8068 12.5909C28.5341 13.3864 28.3977 14.2917 28.3977 15.3068C28.3977 16.322 28.5341 17.2273 28.8068 18.0227C29.0871 18.8182 29.5 19.447 30.0455 19.9091C30.5985 20.3636 31.2803 20.5909 32.0909 20.5909ZM43.8977 24V0.727272H48.7386V9.47727H48.8864C49.0985 9.00758 49.4053 8.5303 49.8068 8.04545C50.2159 7.55303 50.7462 7.14394 51.3977 6.81818C52.0568 6.48485 52.875 6.31818 53.8523 6.31818C55.125 6.31818 56.2992 6.65152 57.375 7.31818C58.4508 7.97727 59.3106 8.97348 59.9545 10.3068C60.5985 11.6326 60.9205 13.2955 60.9205 15.2955C60.9205 17.2424 60.6061 18.8864 59.9773 20.2273C59.3561 21.5606 58.5076 22.572 57.4318 23.2614C56.3636 23.9432 55.1667 24.2841 53.8409 24.2841C52.9015 24.2841 52.1023 24.1288 51.4432 23.8182C50.7917 23.5076 50.2576 23.1174 49.8409 22.6477C49.4242 22.1705 49.1061 21.6894 48.8864 21.2045H48.6705V24H43.8977ZM48.6364 15.2727C48.6364 16.3106 48.7803 17.2159 49.0682 17.9886C49.3561 18.7614 49.7727 19.3636 50.3182 19.7955C50.8636 20.2197 51.5265 20.4318 52.3068 20.4318C53.0947 20.4318 53.7614 20.2159 54.3068 19.7841C54.8523 19.3447 55.2652 18.7386 55.5455 17.9659C55.8333 17.1856 55.9773 16.2879 55.9773 15.2727C55.9773 14.2652 55.8371 13.3788 55.5568 12.6136C55.2765 11.8485 54.8636 11.25 54.3182 10.8182C53.7727 10.3864 53.1023 10.1705 52.3068 10.1705C51.5189 10.1705 50.8523 10.3788 50.3068 10.7955C49.7689 11.2121 49.3561 11.803 49.0682 12.5682C48.7803 13.3333 48.6364 14.2348 48.6364 15.2727ZM76.8665 7.42045C76.7756 6.50379 76.3854 5.79167 75.696 5.28409C75.0066 4.77651 74.071 4.52273 72.8892 4.52273C72.0862 4.52273 71.4081 4.63636 70.8551 4.86364C70.3021 5.08333 69.8778 5.39015 69.5824 5.78409C69.2945 6.17803 69.1506 6.625 69.1506 7.125C69.1354 7.54167 69.2225 7.9053 69.4119 8.21591C69.6089 8.52652 69.8778 8.79545 70.2188 9.02273C70.5597 9.24242 70.9536 9.43561 71.4006 9.60227C71.8475 9.76136 72.3248 9.89773 72.8324 10.0114L74.9233 10.5114C75.9384 10.7386 76.8703 11.0417 77.7188 11.4205C78.5672 11.7992 79.3021 12.2652 79.9233 12.8182C80.5445 13.3712 81.0256 14.0227 81.3665 14.7727C81.715 15.5227 81.893 16.3826 81.9006 17.3523C81.893 18.7765 81.5294 20.0114 80.8097 21.0568C80.0975 22.0947 79.0672 22.9015 77.7188 23.4773C76.3778 24.0455 74.7604 24.3295 72.8665 24.3295C70.9877 24.3295 69.3513 24.0417 67.9574 23.4659C66.571 22.8902 65.4877 22.0379 64.7074 20.9091C63.9347 19.7727 63.5294 18.3674 63.4915 16.6932H68.2528C68.3059 17.4735 68.5294 18.125 68.9233 18.6477C69.3248 19.1629 69.8589 19.553 70.5256 19.8182C71.1998 20.0758 71.9612 20.2045 72.8097 20.2045C73.643 20.2045 74.3665 20.0833 74.9801 19.8409C75.6013 19.5985 76.0824 19.2614 76.4233 18.8295C76.7642 18.3977 76.9347 17.9015 76.9347 17.3409C76.9347 16.8182 76.7794 16.3788 76.4688 16.0227C76.1657 15.6667 75.7188 15.3636 75.1278 15.1136C74.5445 14.8636 73.8286 14.6364 72.9801 14.4318L70.446 13.7955C68.4839 13.3182 66.9347 12.572 65.7983 11.5568C64.6619 10.5417 64.0975 9.17424 64.1051 7.45454C64.0975 6.04545 64.4725 4.81439 65.2301 3.76136C65.9953 2.70833 67.0445 1.88636 68.3778 1.29545C69.7112 0.704545 71.2263 0.40909 72.9233 0.40909C74.6506 0.40909 76.1581 0.704545 77.446 1.29545C78.7415 1.88636 79.7491 2.70833 80.4688 3.76136C81.1884 4.81439 81.5597 6.03409 81.5824 7.42045H76.8665ZM85.1193 30.5455V6.54545H89.892V9.47727H90.108C90.3201 9.00758 90.6269 8.5303 91.0284 8.04545C91.4375 7.55303 91.9678 7.14394 92.6193 6.81818C93.2784 6.48485 94.0966 6.31818 95.0739 6.31818C96.3466 6.31818 97.5208 6.65152 98.5966 7.31818C99.6723 7.97727 100.532 8.97348 101.176 10.3068C101.82 11.6326 102.142 13.2955 102.142 15.2955C102.142 17.2424 101.828 18.8864 101.199 20.2273C100.578 21.5606 99.7292 22.572 98.6534 23.2614C97.5852 23.9432 96.3883 24.2841 95.0625 24.2841C94.1231 24.2841 93.3239 24.1288 92.6648 23.8182C92.0133 23.5076 91.4792 23.1174 91.0625 22.6477C90.6458 22.1705 90.3277 21.6894 90.108 21.2045H89.9602V30.5455H85.1193ZM89.858 15.2727C89.858 16.3106 90.0019 17.2159 90.2898 17.9886C90.5777 18.7614 90.9943 19.3636 91.5398 19.7955C92.0852 20.2197 92.7481 20.4318 93.5284 20.4318C94.3163 20.4318 94.983 20.2159 95.5284 19.7841C96.0739 19.3447 96.4867 18.7386 96.767 17.9659C97.0549 17.1856 97.1989 16.2879 97.1989 15.2727C97.1989 14.2652 97.0587 13.3788 96.7784 12.6136C96.4981 11.8485 96.0852 11.25 95.5398 10.8182C94.9943 10.3864 94.3239 10.1705 93.5284 10.1705C92.7405 10.1705 92.0739 10.3788 91.5284 10.7955C90.9905 11.2121 90.5777 11.803 90.2898 12.5682C90.0019 13.3333 89.858 14.2348 89.858 15.2727ZM113.256 24.3409C111.491 24.3409 109.964 23.9659 108.676 23.2159C107.396 22.4583 106.407 21.4053 105.71 20.0568C105.013 18.7008 104.665 17.1288 104.665 15.3409C104.665 13.5379 105.013 11.9621 105.71 10.6136C106.407 9.25758 107.396 8.20454 108.676 7.45454C109.964 6.69697 111.491 6.31818 113.256 6.31818C115.021 6.31818 116.544 6.69697 117.824 7.45454C119.112 8.20454 120.104 9.25758 120.801 10.6136C121.498 11.9621 121.847 13.5379 121.847 15.3409C121.847 17.1288 121.498 18.7008 120.801 20.0568C120.104 21.4053 119.112 22.4583 117.824 23.2159C116.544 23.9659 115.021 24.3409 113.256 24.3409ZM113.278 20.5909C114.081 20.5909 114.752 20.3636 115.29 19.9091C115.828 19.447 116.233 18.8182 116.506 18.0227C116.786 17.2273 116.926 16.322 116.926 15.3068C116.926 14.2917 116.786 13.3864 116.506 12.5909C116.233 11.7955 115.828 11.1667 115.29 10.7045C114.752 10.2424 114.081 10.0114 113.278 10.0114C112.468 10.0114 111.786 10.2424 111.233 10.7045C110.688 11.1667 110.275 11.7955 109.994 12.5909C109.722 13.3864 109.585 14.2917 109.585 15.3068C109.585 16.322 109.722 17.2273 109.994 18.0227C110.275 18.8182 110.688 19.447 111.233 19.9091C111.786 20.3636 112.468 20.5909 113.278 20.5909ZM134.278 6.54545V10.1818H123.767V6.54545H134.278ZM126.153 2.36364H130.994V18.6364C130.994 19.0833 131.063 19.4318 131.199 19.6818C131.335 19.9242 131.525 20.0947 131.767 20.1932C132.017 20.2917 132.305 20.3409 132.631 20.3409C132.858 20.3409 133.085 20.322 133.312 20.2841C133.54 20.2386 133.714 20.2045 133.835 20.1818L134.597 23.7841C134.354 23.8598 134.013 23.947 133.574 24.0455C133.134 24.1515 132.6 24.2159 131.972 24.2386C130.805 24.2841 129.782 24.1288 128.903 23.7727C128.032 23.4167 127.354 22.8636 126.869 22.1136C126.384 21.3636 126.146 20.4167 126.153 19.2727V2.36364Z" fill="url(#paint0_linear_2_3)" shape-rendering="crispEdges"/>
</g>
<defs>
<filter id="filter0_d_2_3" x="0.738647" y="0.409088" width="137.858" height="38.1364" filterUnits="userSpaceOnUse" color-interpolation-filters="sRGB">
<feFlood flood-opacity="0" result="BackgroundImageFix"/>
<feColorMatrix in="SourceAlpha" type="matrix" values="0 0 0 0 0 0 0 0 0 0 0 0 0 0 0 0 0 0 127 0" result="hardAlpha"/>
<feOffset dy="4"/>
<feGaussianBlur stdDeviation="2"/>
<feComposite in2="hardAlpha" operator="out"/>
<feColorMatrix type="matrix" values="0 0 0 0 0 0 0 0 0 0 0 0 0 0 0 0 0 0 0.25 0"/>
<feBlend mode="normal" in2="BackgroundImageFix" result="effect1_dropShadow_2_3"/>
<feBlend mode="normal" in="SourceGraphic" in2="effect1_dropShadow_2_3" result="shape"/>
</filter>
<linearGradient id="paint0_linear_2_3" x1="11.5" y1="12" x2="136" y2="18" gradientUnits="userSpaceOnUse">
<stop stop-color="#FF8040"/>
<stop offset="1" stop-color="#FF8040" stop-opacity="0.8"/>
</linearGradient>
</defs>
</svg>
