<svg width="18" height="20" viewBox="0 0 18 20" fill="none" xmlns="http://www.w3.org/2000/svg">
<g clip-path="url(#clip0_4_79)">
<path d="M14.9552 8.33337C14.9552 14.1667 8.54586 19.1667 8.54586 19.1667C8.54586 19.1667 2.13647 14.1667 2.13647 8.33337C2.13647 6.34425 2.81175 4.4366 4.01374 3.03007C5.21573 1.62355 6.84598 0.833374 8.54586 0.833374C10.2457 0.833374 11.876 1.62355 13.078 3.03007C14.28 4.4366 14.9552 6.34425 14.9552 8.33337Z" stroke="#338573" stroke-width="2" stroke-linecap="round" stroke-linejoin="round"/>
<path d="M8.54585 10.8334C9.72579 10.8334 10.6823 9.71409 10.6823 8.33337C10.6823 6.95266 9.72579 5.83337 8.54585 5.83337C7.36592 5.83337 6.40939 6.95266 6.40939 8.33337C6.40939 9.71409 7.36592 10.8334 8.54585 10.8334Z" stroke="#338573" stroke-width="2" stroke-linecap="round" stroke-linejoin="round"/>
</g>
<defs>
<clipPath id="clip0_4_79">
<rect width="17.0917" height="20" fill="white"/>
</clipPath>
</defs>
</svg>
