<svg width="32" height="32" viewBox="0 0 32 32" fill="none" xmlns="http://www.w3.org/2000/svg">
<path d="M29.6625 12.2375C29.5592 11.9097 29.3603 11.6202 29.0912 11.4063C28.8221 11.1925 28.4952 11.064 28.1525 11.0375L20.72 10.395C20.675 10.3906 20.6321 10.3741 20.5958 10.3472C20.5595 10.3204 20.5311 10.2842 20.5137 10.2425L17.61 3.3225C17.4755 3.00682 17.2512 2.73764 16.9649 2.54844C16.6787 2.35924 16.3431 2.25836 16 2.25836C15.6568 2.25836 15.3213 2.35924 15.035 2.54844C14.7488 2.73764 14.5244 3.00682 14.39 3.3225L11.4862 10.2425C11.4688 10.2842 11.4404 10.3204 11.4041 10.3472C11.3678 10.3741 11.3249 10.3906 11.28 10.395L3.84746 11.0375C3.50476 11.064 3.17784 11.1925 2.90875 11.4063C2.63966 11.6202 2.44069 11.9097 2.33746 12.2375C2.22812 12.5658 2.21857 12.9192 2.31001 13.2529C2.40146 13.5866 2.58979 13.8858 2.85121 14.1125L8.48996 19.0313C8.52448 19.0619 8.55013 19.1013 8.5642 19.1453C8.57828 19.1893 8.58027 19.2362 8.56996 19.2813L6.87496 26.595C6.79594 26.9317 6.81849 27.2843 6.93974 27.6083C7.06099 27.9322 7.27551 28.2129 7.55621 28.415C7.83255 28.6189 8.16367 28.7353 8.50682 28.7491C8.84996 28.7629 9.18937 28.6735 9.48121 28.4925L15.87 24.6175C15.9075 24.5943 15.9508 24.5819 15.995 24.5819C16.0391 24.5819 16.0824 24.5943 16.12 24.6175L22.5087 28.4925C22.8036 28.673 23.1453 28.7622 23.4908 28.7487C23.8363 28.7352 24.17 28.6196 24.4499 28.4166C24.7298 28.2136 24.9433 27.9323 25.0634 27.6081C25.1836 27.2839 25.205 26.9314 25.125 26.595L23.435 19.2788C23.4246 19.2337 23.4266 19.1868 23.4407 19.1428C23.4548 19.0988 23.4804 19.0594 23.515 19.0288L29.1537 14.11C29.4138 13.8829 29.6008 13.5839 29.6914 13.2507C29.7819 12.9175 29.7718 12.565 29.6625 12.2375ZM28.1625 12.9775L22.5237 17.8963C22.2834 18.1053 22.1048 18.376 22.007 18.6791C21.9092 18.9822 21.8959 19.3062 21.9687 19.6163L23.6587 26.9325C23.6712 26.9817 23.6684 27.0335 23.6508 27.081C23.6332 27.1286 23.6015 27.1696 23.56 27.1988C23.5224 27.2288 23.4762 27.2462 23.4281 27.2482C23.3799 27.2502 23.3324 27.2368 23.2925 27.21L16.9037 23.335C16.6313 23.1694 16.3187 23.0819 16 23.0819C15.6812 23.0819 15.3686 23.1694 15.0962 23.335L8.70746 27.21C8.66748 27.2368 8.61997 27.2502 8.57186 27.2482C8.52375 27.2462 8.47754 27.2288 8.43996 27.1988C8.39843 27.1696 8.36675 27.1286 8.34911 27.081C8.33147 27.0335 8.32872 26.9817 8.34121 26.9325L10.0312 19.6163C10.104 19.3062 10.0907 18.9822 9.99293 18.6791C9.89513 18.376 9.71647 18.1053 9.47621 17.8963L3.83746 12.9775C3.79889 12.9447 3.77119 12.901 3.75803 12.8521C3.74486 12.8032 3.74684 12.7515 3.76371 12.7038C3.77633 12.6562 3.8037 12.6139 3.84188 12.5829C3.88007 12.5519 3.9271 12.5338 3.97621 12.5313L11.41 11.8888C11.7282 11.8616 12.033 11.7479 12.2912 11.56C12.5494 11.372 12.7513 11.117 12.875 10.8225L15.7787 3.9025C15.7989 3.85956 15.8309 3.82324 15.871 3.7978C15.911 3.77237 15.9575 3.75886 16.005 3.75886C16.0524 3.75886 16.0989 3.77237 16.139 3.7978C16.179 3.82324 16.211 3.85956 16.2312 3.9025L19.125 10.8225C19.2482 11.1163 19.4493 11.3709 19.7066 11.5588C19.9639 11.7467 20.2676 11.8608 20.585 11.8888L28.0187 12.5313C28.0678 12.5338 28.1148 12.5519 28.153 12.5829C28.1912 12.6139 28.2186 12.6562 28.2312 12.7038C28.2487 12.751 28.2514 12.8024 28.2392 12.8513C28.2269 12.9001 28.2002 12.9441 28.1625 12.9775Z" fill="black"/>
</svg>
